<?xml version="1.0" encoding="UTF-8"?> <!-- Generator: Adobe Illustrator 23.0.2, SVG Export Plug-In . SVG Version: 6.00 Build 0) --> <svg xmlns="http://www.w3.org/2000/svg" xmlns:xlink="http://www.w3.org/1999/xlink" id="Слой_1" x="0px" y="0px" viewBox="0 0 2840 1100" style="enable-background:new 0 0 2840 1100;" xml:space="preserve"> <style type="text/css"> .st0{fill:#FFD346;} .st1{fill:#006838;} .st2{fill:#333333;} </style> <g> <path class="st0" d="M2688,177.5c-74.6-96.1-166.8-98.7-184.4-98.8c-337.4,31.5-699.1,50.4-1082.5,50.4 c-384.2,0-746.7-18.9-1084.8-50.4c-143.6,0-261.1,151.4-261.1,336.4v150.5v0.7v150.5c0,92.5,29.4,176.6,76.7,237.6 c74.6,96.1,166.8,98.7,184.4,98.8c337.4-31.5,699.1-50.4,1082.5-50.4c384.2,0,746.7,18.9,1084.8,50.4 c143.6,0,261.1-151.4,261.1-336.4V566.2v-0.7V415.1C2764.7,322.6,2735.3,238.5,2688,177.5z"></path> <path class="st1" d="M2751.5,120.7c-1.5-2.1-3.1-4.1-4.6-6.1c-55.3-71.5-138.3-107.9-222.3-99.9 c-344.8,32.8-713.4,52.4-1103.4,52.5c-390.9,0-760.3-19.6-1105.8-52.5C231.3,6.7,148.3,43.1,93,114.8C40.7,182.6,8,278,8,383.3 v166.3v0.8v166.3c0,102.2,30.8,195.2,80.5,262.6c1.5,2.1,3.1,4.1,4.6,6.1c55.3,71.5,138.3,107.9,222.3,99.9 c344.8-32.8,713.4-52.4,1103.4-52.5c390.9,0,760.3,19.6,1105.8,52.5c84.1,8,167.2-28.4,222.4-100.1c52.3-67.8,85-163.2,85-268.5 V550.4v-0.8V383.3C2832,281.1,2801.2,188.1,2751.5,120.7z"></path> <path class="st0" d="M2688,161.6c-18.7-24-38.4-42.2-57.8-56c-44.9-31.8-98.1-45.4-150.9-40.6c-330.4,30.1-684,48.1-1058.1,48.2 c-374.8,0-729-18-1060-48.1c-65.3-5.9-130.6,16.6-180.4,64.4C116.9,191,75.3,289.1,75.3,399.2v150.5v0.7v150.5 c0,92.5,29.4,176.6,76.7,237.6c18.7,24,38.4,42.2,57.8,56c44.9,31.8,98.1,45.4,150.9,40.6c330.4-30.1,684-48.1,1058.1-48.2 c374.8,0,729,18,1060,48.1c65.3,5.9,130.6-16.6,180.4-64.4c63.9-61.5,105.5-159.6,105.5-269.7V550.3v-0.7V399.2 C2764.7,306.7,2735.3,222.6,2688,161.6z"></path> <g> <path class="st2" d="M678.2,309.2c19.3,16,28.9,38.7,28.9,68.1c0,28.1-8.6,49.9-25.8,65.5c-17.2,15.6-41.6,23.4-73.2,23.4 c-14.3,0-28.5-2.1-42.8-6.2v58.2H489V385.9c0-32.7,9.1-57.6,27.3-74.8c18.2-17.2,45.2-25.8,80.9-25.8 C631.9,285.2,658.9,293.2,678.2,309.2z M629.1,379c0-10.3-2.6-18.3-7.9-23.8c-5.3-5.6-12.7-8.4-22.4-8.4 c-10.5,0-18.7,3.4-24.7,10.2c-5.9,6.8-8.9,16.2-8.9,28.3v19.7c8.8,4.2,18.6,6.2,29.6,6.2C617.7,411.2,629.1,400.5,629.1,379z"></path> <path class="st2" d="M784.7,507.9c-19.7-10.3-35.2-24.6-46.4-42.9c-11.2-18.3-16.8-39-16.8-62c0-23,5.6-43.7,16.8-62 c11.2-18.3,26.6-32.6,46.4-42.9c19.7-10.3,42-15.5,66.8-15.5c24.8,0,47,5.2,66.8,15.5c19.7,10.3,35.2,24.6,46.4,42.9 c11.2,18.3,16.8,39,16.8,62c0,23-5.6,43.7-16.8,62c-11.2,18.3-26.6,32.6-46.4,42.9s-42,15.5-66.8,15.5 C826.7,523.4,804.5,518.2,784.7,507.9z M877.6,453.5c7.8-4.7,14-11.4,18.6-20.1c4.6-8.7,6.9-18.8,6.9-30.4 c0-11.6-2.3-21.8-6.9-30.4c-4.6-8.7-10.8-15.3-18.6-20.1c-7.8-4.7-16.5-7.1-26.1-7.1c-9.7,0-18.4,2.4-26.1,7.1 c-7.8,4.7-14,11.4-18.6,20.1c-4.6,8.7-6.9,18.8-6.9,30.4c0,11.6,2.3,21.8,6.9,30.4c4.6,8.7,10.8,15.4,18.6,20.1 c7.8,4.7,16.5,7.1,26.1,7.1C861.1,460.5,869.8,458.2,877.6,453.5z"></path> <path class="st2" d="M1007.7,287.9h113.5c25.7,0,48.3,4.7,67.9,14c19.6,9.3,34.9,22.6,45.7,40c10.9,17.3,16.3,37.7,16.3,61.2 c0,23.5-5.4,43.9-16.3,61.2c-10.9,17.3-26.1,30.6-45.7,40c-19.6,9.3-42.3,14-67.9,14h-113.5V287.9z M1117.9,457.6 c16.7,0,30-4.8,40-14.3c10-9.5,15-23,15-40.3c0-17.3-5-30.8-15-40.3c-10-9.5-23.3-14.3-40-14.3h-32.6v109.2H1117.9z"></path> <path class="st2" d="M1396.5,287.9h77.6v170H1578v60.2h-181.6V287.9z"></path> <path class="st2" d="M1629.5,516.9c-18.1-4.3-32.9-10-44.6-17.3l25-56.6c11,6.4,23.2,11.5,36.8,15.3c13.6,3.8,26.6,5.8,39.1,5.8 c10.7,0,18.4-1,23-3.1c4.6-2.1,6.9-5.2,6.9-9.4c0-4.8-3-8.4-9-10.9c-6-2.4-16-5-29.8-7.9c-17.8-3.7-32.6-7.7-44.4-12 c-11.8-4.3-22.1-11.3-30.9-21.1c-8.8-9.8-13.2-23-13.2-39.6c0-14.5,4.1-27.6,12.2-39.5c8.1-11.8,20.2-21.2,36.3-28 c16.1-6.8,35.7-10.2,58.7-10.2c15.8,0,31.3,1.7,46.5,5.1c15.2,3.4,28.7,8.4,40.3,15l-23.4,56.2c-22.6-11.4-44-17.1-64.1-17.1 c-20,0-29.9,4.8-29.9,14.5c0,4.6,3,8.1,8.9,10.4c5.9,2.3,15.7,4.8,29.3,7.4c17.5,3.3,32.3,7.1,44.4,11.3 c12.1,4.3,22.5,11.2,31.4,20.9c8.9,9.7,13.3,22.8,13.3,39.5c0,14.5-4.1,27.6-12.2,39.3c-8.1,11.7-20.2,21-36.3,28 c-16.1,6.9-35.7,10.4-58.7,10.4C1666.1,523.4,1647.6,521.2,1629.5,516.9z"></path> <path class="st2" d="M1977.9,399.7l68.1,118.4h-87.5l-44.1-83.2h-21.7v83.2h-77.6V287.9h77.6v85.8h23.7l49-85.8h80.9L1977.9,399.7 z"></path> <path class="st2" d="M2113.5,287.9h24.9v179.5c0,28-22.7,50.7-50.7,50.7h-25.6V339.2C2062.1,310.9,2085.1,287.9,2113.5,287.9z"></path> <path class="st2" d="M1328.9,319.2h24.9v155.1c0,24.2-22.7,43.8-50.7,43.8h-25.6V363.6C1277.6,339.1,1300.6,319.2,1328.9,319.2z"></path> <path class="st2" d="M2314.4,434.5v83.5h-77.6v-84.5L2150,287.9h81.9l47,79.6l47.4-79.6h75L2314.4,434.5z"></path> <path class="st2" d="M959.2,889.3c-18.1-4.3-32.9-10-44.6-17.3l25-56.6c11,6.4,23.2,11.5,36.8,15.3c13.6,3.8,26.6,5.8,39.1,5.8 c10.7,0,18.4-1,23-3.1c4.6-2.1,6.9-5.2,6.9-9.4c0-4.8-3-8.4-9-10.9c-6-2.4-16-5-29.8-7.9c-17.8-3.7-32.6-7.7-44.4-12 c-11.8-4.3-22.1-11.3-30.9-21.1c-8.8-9.8-13.2-23-13.2-39.6c0-14.5,4.1-27.6,12.2-39.5c8.1-11.8,20.2-21.2,36.3-28 c16.1-6.8,35.7-10.2,58.7-10.2c15.8,0,31.3,1.7,46.5,5.1c15.2,3.4,28.7,8.4,40.3,15l-23.4,56.2c-22.6-11.4-44-17.1-64.1-17.1 c-20,0-29.9,4.8-29.9,14.5c0,4.6,3,8.1,8.9,10.4c5.9,2.3,15.7,4.8,29.3,7.4c17.5,3.3,32.3,7.1,44.4,11.3 c12.1,4.3,22.5,11.2,31.4,20.9c8.9,9.7,13.3,22.8,13.3,39.5c0,14.5-4.1,27.6-12.2,39.3c-8.1,11.7-20.2,21-36.3,28 c-16.1,6.9-35.7,10.4-58.7,10.4C995.9,895.8,977.3,893.6,959.2,889.3z"></path> <path class="st2" d="M1352.4,890.5l-0.7-104.9l-50,84.2h-34.2l-50-80.6v101.3h-70.7V660.3h63.8l75,122.7l73-122.7h63.8l0.7,230.2 H1352.4z"></path> <path class="st2" d="M1632.6,668.3c17.1,8.9,30.4,21.8,40,38.8c9.5,17,14.3,37.2,14.3,60.7v122.7h-77.6v-46.4h-73v46.4h-76.3 V767.8c0-23.5,4.8-43.7,14.3-60.7c9.5-17,22.9-29.9,40-38.8c17.1-8.9,36.8-13.3,59.2-13.3S1615.5,659.4,1632.6,668.3z M1609.3,785.6v-24.3c0-14.3-3.3-25-10-32.4c-6.7-7.3-15.5-11-26.5-11c-11,0-19.8,3.7-26.5,11c-6.7,7.3-10,18.1-10,32.4v24.3 H1609.3z"></path> <path class="st2" d="M1884.9,772.1l68.1,118.4h-87.5l-44.1-83.2h-21.7v83.2h-77.6V660.3h77.6v85.8h23.7l49-85.8h80.9L1884.9,772.1 z"></path> </g> <g> <path class="st1" d="M1259,191.6c17.3,12.6,29.6,40.1,29.6,40.1c11.3-14.7,30.3-23.6,30.3-23.6c-17.9-46.9-80.8-64.7-80.8-64.7 c-42.2,99.6,34.6,150.8,34.6,150.8c-0.1-35.2,9.6-52.7,9.6-52.7C1271.1,208.7,1259,191.6,1259,191.6z"></path> <path class="st1" d="M1283.1,301c44.4-65.4,89.6-72.6,89.6-72.6c-48.2,27.7-80.2,79.4-80.2,79.4 c132.4,7.8,124.2-112.4,124.2-112.4C1255.8,189.6,1283.1,301,1283.1,301z"></path> </g> <path class="st1" d="M2550.6,658.1c0,0-438.9-132.4-1205.6-88.4c-766.7,44-977.1,1.6-1018-24.5c0,0,121,114.5,983.9,66.4 c829.9-46.2,1209.9,39.9,1237.8,46.5C2549.9,658.5,2550.6,658.1,2550.6,658.1z"></path> </g> </svg> 